<?xml version='1.0' encoding='utf-8'?>
<!DOCTYPE svg PUBLIC '-//W3C//DTD SVG 1.1//EN' 'http://www.w3.org/Graphics/SVG/1.1/DTD/svg11.dtd'>
<svg version="1.1" xmlns="http://www.w3.org/2000/svg" viewBox="0 0 512 512" xmlns:xlink="http://www.w3.org/1999/xlink" enable-background="new 0 0 512 512">
  <g>
    <g>
      <path d="m253.2,414.2h-38.6v-15.8h-40.8v15.8h-62.4v-15.8c0,0-40.3,0-40.8,0v15.8h-30.5c-11.3,0-20.4,9.1-20.4,20.4 0,11.3 9.1,20.4 20.4,20.4h213.2c11.3,0 20.4-9.1 20.4-20.4 0-11.2-9.2-20.4-20.5-20.4z"/>
      <path d="m115.5,142.6c-20.8,2.7-62.8,54.8-80.5,87.1h97.8v-87.1h-17.3z"/>
      <path d="m438.1,102.9c-27.3,0-50.5,16.6-59.2,39.7h-164.2v-44.8h142.4c11.3,0 20.4-9.1 20.4-20.4 0-11.3-9.1-20.4-20.4-20.4h-325.7c-11.3-0.1-20.4,9.1-20.4,20.4 0,11.3 9.1,20.4 20.4,20.4h142.4l-.2,152.3c0,11.3-9.1,20.4-20.4,20.4h-137.9c-9.9,27.1-2.1,57.7 19.7,74.4 10.9,8.3 23.7,12.7 37.1,12.7h145.7c35.2,0 63.8-30.6 63.8-68.2 0-10.1 4.7-19.3 12.2-24.1 0.5-0.3 91.9-69.5 91.9-69.5 11.3,16 30.5,26.5 52.2,26.5 34.7,0 62.9-26.8 62.9-59.8s-28-59.6-62.7-59.6z"/>
    </g>
  </g>
</svg>
